<svg width="38" height="38" viewBox="0 0 38 38" xmlns="http://www.w3.org/2000/svg"><g fill="none" fill-rule="evenodd"><path fill="#FFF" d="M0 0h38v38H0z"/><path d="M14.14 6H7C5.36 6 4 7.36 4 9.04v12.38a3.03 3.03 0 0 0 3 3.04h7.14a3.03 3.03 0 0 0 3.04-3.04V9.04A3.03 3.03 0 0 0 14.14 6" fill="#7D7DFF" fill-rule="nonzero"/><path d="M7 27.46h10.18v4.9c0 1.64-1.36 3-3.04 3H7c-1.64 0-3-1.36-3-3v-1.9c0-1.64 1.36-3 3-3" fill="#1F4FFF" fill-rule="nonzero"/><path d="M23.18 3h7.14a3.03 3.03 0 0 1 3.04 3v1.9c0 1.64-1.36 3-3.04 3H20.18V6c0-1.64 1.36-3 3-3" fill="#25F278" fill-rule="nonzero"/><path d="M30.32 13.9h-7.14c-1.64 0-3 1.36-3 3.04v12.38a3.03 3.03 0 0 0 3 3.04h7.14a3.03 3.03 0 0 0 3.04-3.04V16.94a3.03 3.03 0 0 0-3.04-3.04" fill="#7D7DFF" fill-rule="nonzero"/></g></svg>